<svg width="87" height="87" viewBox="0 0 87 87" fill="none" xmlns="http://www.w3.org/2000/svg">
<circle cx="43.5" cy="43.5" r="43.5" fill="white"/>
<path fill-rule="evenodd" clip-rule="evenodd" d="M25.5984 18.0843C24.5722 18.3261 23.7778 19.1469 23.5075 20.2449C23.1698 21.6166 23.8378 23.1275 25.0313 23.6917L25.4662 23.8972L25.4776 26.05C25.4838 27.234 25.4913 29.2907 25.4941 30.6204L25.4992 33.0381L25.6823 33.2371C25.8638 33.4345 25.8735 33.4364 26.8552 33.4592L27.8451 33.4823L27.8396 35.7175L27.8342 37.9527L26.898 38.6215C25.2831 39.7753 22.7024 42.1412 22.2908 42.8452C21.9124 43.4926 21.9028 44.2478 22.2646 44.9189C22.6689 45.6687 25.4318 48.1885 27.1645 49.3875L27.8379 49.8535L27.8415 52.2014L27.8451 54.5493H26.888H25.9309L25.7151 54.7586L25.4992 54.9678L25.4901 57.8951C25.485 59.5051 25.4775 61.5643 25.4733 62.4712L25.4657 64.1201L25.1725 64.251C24.3869 64.6014 23.7915 65.2956 23.5506 66.1419C23.0537 67.8873 24.1078 69.7035 25.7656 69.9582C27.5104 70.2263 29.019 68.7082 28.8855 66.8185C28.8023 65.6402 28.0915 64.606 27.1017 64.223L26.8539 64.1272V60.0552V55.9832H27.8172H28.7804L28.9736 55.7736L29.1668 55.564V53.2047C29.1668 51.907 29.1803 50.8306 29.1968 50.8127C29.2133 50.7948 29.6817 51.0245 30.2376 51.3233C32.0798 52.3135 34.1555 53.1581 36.0557 53.6905L36.8982 53.9266V55.4164V56.9062L35.2232 56.9286C33.8534 56.9469 33.5264 56.9706 33.4288 57.0585C33.1434 57.3156 33.1316 57.466 33.1314 60.8738L33.1312 64.1201L32.8379 64.251C32.3404 64.4729 31.9363 64.8094 31.6363 65.2516C30.6186 66.7514 31.0677 68.8354 32.5882 69.6682C34.413 70.6675 36.5663 69.236 36.5663 67.0237C36.5663 65.7792 35.8066 64.6007 34.7671 64.2326L34.5193 64.1449V61.2863V58.4277L36.1769 58.4063L37.8344 58.3848L38.0272 58.1507L38.2199 57.9165V56.1015C38.2199 55.1032 38.2353 54.2697 38.2542 54.2492C38.2731 54.2288 38.5184 54.2555 38.7993 54.3086C39.4072 54.4235 40.9431 54.6029 41.9449 54.6761L42.6632 54.7285L42.6672 59.4079L42.6712 64.0871L42.2132 64.3254C41.4413 64.7269 40.9053 65.4184 40.6986 66.2795C40.2053 68.3345 41.8119 70.2674 43.762 69.965C44.6469 69.8279 45.3911 69.2313 45.8016 68.3301C46.0418 67.8028 46.0505 67.7576 46.0505 67.0274C46.0505 66.3281 46.0348 66.235 45.8431 65.7961C45.513 65.0403 44.9544 64.4762 44.2843 64.2219L44.0381 64.1284L44.02 61.4359C44.0101 59.9549 44.0098 57.8369 44.0195 56.7291L44.037 54.7149L44.9777 54.6675C45.495 54.6414 46.3049 54.5719 46.7774 54.513C47.2499 54.454 47.8086 54.3849 48.019 54.3595L48.4015 54.3132L48.3922 56.1073C48.3818 58.0963 48.399 58.1893 48.8071 58.3436C48.9298 58.3901 49.6239 58.4207 50.5538 58.4207H52.0969V61.2741V64.1277L51.783 64.2502C51.0868 64.522 50.45 65.2431 50.1838 66.0611C50.0572 66.4499 50.037 66.6308 50.0605 67.1629C50.085 67.7191 50.1195 67.8675 50.3339 68.3379C50.7348 69.2181 51.4303 69.7799 52.3404 69.9589C53.4697 70.181 54.7158 69.4828 55.2322 68.3386C55.9193 66.8162 55.3326 65.051 53.8976 64.323L53.4185 64.0799V60.7438C53.4185 58.4911 53.3953 57.3606 53.3472 57.2628C53.1982 56.961 52.925 56.9151 51.273 56.9151H49.718L49.7186 55.4634L49.7193 54.0116L50.7594 53.7344C52.5812 53.2489 54.5725 52.4685 56.3842 51.5301C56.9084 51.2586 57.3551 51.0364 57.3769 51.0364C57.3987 51.0364 57.4164 52.0554 57.4164 53.3007V55.5648L57.6323 55.774L57.8481 55.9832H58.8052H59.7623V60.0639V64.1446L59.5673 64.1911C59.2312 64.2711 58.5939 64.7748 58.2805 65.208C56.9979 66.9809 57.9651 69.6101 60.0285 69.9594C61.4923 70.2071 62.8644 69.1252 63.1393 67.5068C63.3557 66.2327 62.6923 64.8923 61.563 64.3219L61.0839 64.0799V59.5242V54.9684L60.8908 54.7589L60.6976 54.5493H59.7344H58.7711V52.3337V50.1181L59.085 49.9216C59.5167 49.6514 60.9584 48.5788 61.4804 48.1395C62.6573 47.1492 64.3961 45.4765 64.6484 45.092C65.0228 44.5216 65.1072 43.7272 64.8582 43.1166C64.5239 42.2965 61.6584 39.6485 59.534 38.1965L58.7711 37.675V35.5787V33.4823L59.7682 33.4592L60.7653 33.4362L60.9246 33.235L61.0839 33.0338V28.4861V23.9385L61.5127 23.7275C62.6611 23.1626 63.357 21.7962 63.1417 20.5287C63.0323 19.8842 62.7833 19.3488 62.3934 18.919C60.9553 17.334 58.5094 17.9377 57.842 20.0422C57.6118 20.7683 57.6975 21.833 58.0344 22.4315C58.3942 23.0706 58.9399 23.5743 59.515 23.7979L59.7634 23.8946L59.7463 27.9484L59.7293 32.0023L58.7653 32.0221L57.8014 32.0419L57.6089 32.2598L57.4164 32.4776V34.6236C57.4164 35.8039 57.3984 36.7696 57.3764 36.7697C57.3543 36.7697 56.9677 36.5792 56.5173 36.3462C54.6281 35.3691 52.4536 34.5168 50.6266 34.0374L49.718 33.7991V32.4526V31.1062H51.1965C52.856 31.1062 53.0175 31.086 53.2524 30.8499L53.4185 30.6828V27.3107V23.9385L53.8491 23.7266C55.6194 22.8558 56.0762 20.4067 54.745 18.924C53.3117 17.3276 50.8928 17.9201 50.1827 20.0416C49.9719 20.6715 50.007 21.5723 50.266 22.1756C50.6004 22.9546 51.1555 23.5308 51.8019 23.7698L52.0969 23.8788V26.7397V29.6007H50.5538C49.5934 29.6007 48.9314 29.6307 48.8003 29.6802C48.4036 29.8303 48.3571 30.0662 48.3707 31.8589C48.3773 32.7264 48.3724 33.4545 48.3599 33.4769C48.3475 33.4992 47.9581 33.4605 47.4946 33.3907C46.7587 33.2799 45.2962 33.1456 44.2663 33.0942L43.9359 33.0777L43.9189 28.5086L43.9019 23.9395L44.3858 23.6903C45.4998 23.1168 46.1617 21.7992 45.9599 20.5566C45.7499 19.2631 44.853 18.2763 43.687 18.0559C42.5085 17.8333 41.2652 18.5594 40.7366 19.7789C40.5838 20.1316 40.5657 20.2604 40.5657 20.9977C40.5657 21.7927 40.5738 21.8395 40.7911 22.3093C41.0562 22.8826 41.5513 23.4087 42.0816 23.6809C42.2792 23.7824 42.4725 23.8653 42.511 23.8653C42.5598 23.8653 42.5812 25.2718 42.5812 28.4797V33.094L41.8708 33.1413C40.9869 33.2001 39.4003 33.3858 38.7663 33.5047C38.5035 33.5539 38.2731 33.5775 38.2542 33.557C38.2353 33.5365 38.2199 32.7514 38.2199 31.8123V30.1048L38.0272 29.8706L37.8344 29.6365L36.1769 29.6151L34.5193 29.5936V26.7351V23.8764L34.7671 23.7892C35.3378 23.5883 35.9895 22.9536 36.3049 22.2914C36.449 21.9889 36.5663 21.4082 36.5663 20.9977C36.5663 20.192 36.2848 19.4622 35.7511 18.884C34.2612 17.2698 31.7195 18.0253 31.1729 20.2449C30.8208 21.675 31.5597 23.2335 32.8415 23.7646L33.1316 23.8848V27.1393C33.1316 30.783 33.1346 30.8099 33.5567 31.0012C33.7376 31.0833 34.1275 31.1062 35.3432 31.1062H36.8982V32.5014V33.8966L36.6174 33.9733C35.5694 34.2597 35.1754 34.3808 34.3541 34.669C32.9648 35.1565 31.709 35.7093 30.4223 36.3996C29.7863 36.7408 29.2436 37.0309 29.2163 37.0442C29.189 37.0576 29.1668 36.031 29.1668 34.7629V32.4573L28.9736 32.2477L28.7804 32.0382H27.8172H26.8539V27.9649V23.8917L27.2146 23.7295C28.0035 23.3748 28.5789 22.6598 28.805 21.7534C29.2105 20.1282 28.2617 18.4418 26.7458 18.0934C26.2133 17.971 26.0835 17.9699 25.5984 18.0843ZM26.7841 19.6334C27.7408 20.163 27.8195 21.5713 26.9302 22.2493C26.6747 22.4442 26.5928 22.4673 26.1601 22.4673C25.7273 22.4673 25.6454 22.4442 25.3893 22.2491C24.4619 21.5427 24.619 20.0255 25.6664 19.5719C25.9493 19.4494 26.5071 19.4801 26.7841 19.6334ZM34.4249 19.6279C34.9891 19.9059 35.3453 20.6961 35.1879 21.3206C35.0807 21.7456 34.8885 22.0432 34.5763 22.2673C34.3358 22.44 34.2322 22.4673 33.8195 22.4673C33.3934 22.4673 33.31 22.4435 33.0553 22.2493C32.3437 21.7068 32.2235 20.7094 32.7826 19.9884C33.1568 19.506 33.8629 19.3509 34.4249 19.6279ZM44.0436 19.7452C44.463 20.0657 44.6455 20.4901 44.6166 21.0781C44.5868 21.6868 44.3665 22.0598 43.8824 22.3216C43.1463 22.7196 42.3223 22.4101 41.9796 21.607C41.6692 20.8795 41.9511 20.0442 42.6473 19.6286C43.0115 19.4113 43.6796 19.467 44.0436 19.7452ZM53.5612 19.7462C54.0388 20.1104 54.2572 20.7054 54.1341 21.3073C53.8853 22.5247 52.4785 22.916 51.72 21.9787C51.1241 21.2424 51.3334 20.1165 52.1564 19.6309C52.5291 19.4111 53.1931 19.4655 53.5612 19.7462ZM61.0901 19.6575C61.2713 19.7605 61.4648 19.9567 61.6023 20.1773C61.8101 20.5104 61.8219 20.5621 61.7998 21.04C61.7698 21.6889 61.563 22.0606 61.0858 22.3229C59.9098 22.9695 58.6146 21.6679 59.1607 20.3883C59.5018 19.589 60.3822 19.2556 61.0901 19.6575ZM44.6628 35.011C46.5421 35.3843 48.0324 36.2622 49.332 37.7616C50.2002 38.7633 50.9051 40.1155 51.2662 41.4722C51.4865 42.2999 51.5011 42.4097 51.5476 43.588C51.6434 46.0184 50.854 48.2959 49.2949 50.0878C45.4929 54.4572 38.961 53.6822 36.1027 48.5226C35.8343 48.0382 35.6579 47.6304 35.3446 46.7708C35.271 46.5688 35.2687 46.5598 35.1062 45.8029C34.9064 44.873 34.8908 43.1284 35.0736 42.1825C35.4273 40.3525 36.1695 38.8497 37.3592 37.5541C38.5642 36.2419 39.9392 35.4371 41.6413 35.0478C42.3746 34.88 43.9093 34.8614 44.6628 35.011ZM49.4383 35.2302C51.8932 35.8032 54.0712 36.643 56.3261 37.886C58.6672 39.1767 60.7051 40.7108 62.6829 42.6716C63.9119 43.8901 63.9069 43.8612 63.0475 44.7634C59.7215 48.2553 55.3403 50.9151 50.7753 52.2135C49.7812 52.4963 48.5876 52.7734 48.5481 52.7305C48.534 52.7152 48.7245 52.5476 48.9715 52.3581C49.5696 51.8994 50.6501 50.7069 51.1276 49.9788C51.844 48.8862 52.3992 47.5315 52.7064 46.1264C52.8661 45.3958 52.9295 43.6614 52.8334 42.6485C52.5687 39.8559 51.0355 37.031 48.8981 35.3979C48.6471 35.2061 48.4915 35.0492 48.5523 35.0492C48.6132 35.0492 49.0118 35.1307 49.4383 35.2302ZM37.3872 35.5647C35.9194 36.763 34.6724 38.6592 34.096 40.5695C33.6934 41.9034 33.627 42.3827 33.6289 43.939C33.6309 45.4722 33.6992 45.9748 34.0706 47.1877C34.6967 49.2325 35.8201 50.9241 37.4795 52.3204C37.6356 52.4518 37.7516 52.572 37.7373 52.5876C37.7229 52.6032 37.2234 52.4833 36.6274 52.3213C31.8122 51.0121 27.4628 48.4087 23.8968 44.701C23.1758 43.9514 23.1724 43.8739 23.8307 43.178C26.8261 40.0117 30.6468 37.5034 34.6184 36.0958C35.5687 35.7591 37.4939 35.1995 37.7176 35.1951C37.7966 35.1935 37.6742 35.3305 37.3872 35.5647ZM42.2839 38.1666C40.2932 38.5684 38.7188 40.1022 38.0879 42.2542C37.8896 42.9308 37.8343 44.3312 37.9771 45.0599C38.2802 46.6058 39.2411 48.105 40.4216 48.8737C41.6628 49.682 43.2708 49.9472 44.5967 49.5623C46.2371 49.0861 47.6615 47.7102 48.2552 46.0283C48.5244 45.2656 48.6138 44.7361 48.6138 43.9031C48.6138 43.0701 48.5244 42.5406 48.2552 41.7779C47.3501 39.214 44.7838 37.6619 42.2839 38.1666ZM44.4312 39.7227C46.0848 40.2666 47.273 42.0153 47.273 43.9051C47.273 45.5798 46.3785 47.1244 44.9932 47.8419C44.3868 48.1559 43.928 48.2674 43.242 48.2674C42.5515 48.2674 42.1017 48.1552 41.4578 47.8226C40.7693 47.4668 39.9889 46.6258 39.6501 45.8746C38.8677 44.1398 39.1562 42.2002 40.3972 40.8517C40.9168 40.2871 41.2636 40.0402 41.9001 39.7819C42.6687 39.4699 43.5966 39.4481 44.4312 39.7227ZM26.7595 65.6538C27.2259 65.8837 27.5819 66.4971 27.5801 67.0678C27.5792 67.368 27.3019 67.9675 27.0633 68.1854C26.4021 68.789 25.3656 68.5703 24.9393 67.7374C24.5408 66.959 24.889 65.9345 25.6664 65.5979C25.9316 65.4831 26.4687 65.5105 26.7595 65.6538ZM34.3718 65.6291C35.3759 66.0842 35.5077 67.5808 34.6042 68.2689C34.2802 68.5158 33.7528 68.5971 33.3687 68.4596C32.1927 68.0385 32.1237 66.1689 33.2642 65.6323C33.5648 65.4909 34.0638 65.4895 34.3718 65.6291ZM43.9365 65.6518C44.7916 66.0733 45.017 67.224 44.398 68.0085C43.6523 68.9536 42.2402 68.5546 41.9815 67.3257C41.7939 66.4346 42.4826 65.5157 43.335 65.5197C43.5201 65.5206 43.7908 65.58 43.9365 65.6518ZM53.5393 65.7524C54.1457 66.1877 54.3461 67.1055 53.9819 67.7797C53.505 68.6626 52.3747 68.788 51.742 68.0282C51.1038 67.2617 51.3255 66.1003 52.196 65.6501C52.5817 65.4507 53.1828 65.4964 53.5393 65.7524ZM61.0858 65.6984C61.563 65.9607 61.7698 66.3324 61.7998 66.9814C61.8219 67.4593 61.8101 67.5109 61.6023 67.844C60.9767 68.8471 59.6291 68.7307 59.1607 67.633C58.6134 66.3507 59.9073 65.0505 61.0858 65.6984Z" fill="black"/>
<path fill-rule="evenodd" clip-rule="evenodd" d="M25.5984 18.0843C24.5722 18.3261 23.7778 19.1469 23.5075 20.2449C23.1698 21.6166 23.8378 23.1275 25.0313 23.6917L25.4662 23.8972L25.4776 26.05C25.4838 27.234 25.4913 29.2907 25.4941 30.6204L25.4992 33.0381L25.6823 33.2371C25.8638 33.4345 25.8735 33.4364 26.8552 33.4592L27.8451 33.4823L27.8396 35.7175L27.8342 37.9527L26.898 38.6215C25.2831 39.7753 22.7024 42.1412 22.2908 42.8452C21.9124 43.4926 21.9028 44.2478 22.2646 44.9189C22.6689 45.6687 25.4318 48.1885 27.1645 49.3875L27.8379 49.8535L27.8415 52.2014L27.8451 54.5493H26.888H25.9309L25.7151 54.7586L25.4992 54.9678L25.4901 57.8951C25.485 59.5051 25.4775 61.5643 25.4733 62.4712L25.4657 64.1201L25.1725 64.251C24.3869 64.6014 23.7915 65.2956 23.5506 66.1419C23.0537 67.8873 24.1078 69.7035 25.7656 69.9582C27.5104 70.2263 29.019 68.7082 28.8855 66.8185C28.8023 65.6402 28.0915 64.606 27.1017 64.223L26.8539 64.1272V60.0552V55.9832H27.8172H28.7804L28.9736 55.7736L29.1668 55.564V53.2047C29.1668 51.907 29.1803 50.8306 29.1968 50.8127C29.2133 50.7948 29.6817 51.0245 30.2376 51.3233C32.0798 52.3135 34.1555 53.1581 36.0557 53.6905L36.8982 53.9266V55.4164V56.9062L35.2232 56.9286C33.8534 56.9469 33.5264 56.9706 33.4288 57.0585C33.1434 57.3156 33.1316 57.466 33.1314 60.8738L33.1312 64.1201L32.8379 64.251C32.3404 64.4729 31.9363 64.8094 31.6363 65.2516C30.6186 66.7514 31.0677 68.8354 32.5882 69.6682C34.413 70.6675 36.5663 69.236 36.5663 67.0237C36.5663 65.7792 35.8066 64.6007 34.7671 64.2326L34.5193 64.1449V61.2863V58.4277L36.1769 58.4063L37.8344 58.3848L38.0272 58.1507L38.2199 57.9165V56.1015C38.2199 55.1032 38.2353 54.2697 38.2542 54.2492C38.2731 54.2288 38.5184 54.2555 38.7993 54.3086C39.4072 54.4235 40.9431 54.6029 41.9449 54.6761L42.6632 54.7285L42.6672 59.4079L42.6712 64.0871L42.2132 64.3254C41.4413 64.7269 40.9053 65.4184 40.6986 66.2795C40.2053 68.3345 41.8119 70.2674 43.762 69.965C44.6469 69.8279 45.3911 69.2313 45.8016 68.3301C46.0418 67.8028 46.0505 67.7576 46.0505 67.0274C46.0505 66.3281 46.0348 66.235 45.8431 65.7961C45.513 65.0403 44.9544 64.4762 44.2843 64.2219L44.0381 64.1284L44.02 61.4359C44.0101 59.9549 44.0098 57.8369 44.0195 56.7291L44.037 54.7149L44.9777 54.6675C45.495 54.6414 46.3049 54.5719 46.7774 54.513C47.2499 54.454 47.8086 54.3849 48.019 54.3595L48.4015 54.3132L48.3922 56.1073C48.3818 58.0963 48.399 58.1893 48.8071 58.3436C48.9298 58.3901 49.6239 58.4207 50.5538 58.4207H52.0969V61.2741V64.1277L51.783 64.2502C51.0868 64.522 50.45 65.2431 50.1838 66.0611C50.0572 66.4499 50.037 66.6308 50.0605 67.1629C50.085 67.7191 50.1195 67.8675 50.3339 68.3379C50.7348 69.2181 51.4303 69.7799 52.3404 69.9589C53.4697 70.181 54.7158 69.4828 55.2322 68.3386C55.9193 66.8162 55.3326 65.051 53.8976 64.323L53.4185 64.0799V60.7438C53.4185 58.4911 53.3953 57.3606 53.3472 57.2628C53.1982 56.961 52.925 56.9151 51.273 56.9151H49.718L49.7186 55.4634L49.7193 54.0116L50.7594 53.7344C52.5812 53.2489 54.5725 52.4685 56.3842 51.5301C56.9084 51.2586 57.3551 51.0364 57.3769 51.0364C57.3987 51.0364 57.4164 52.0554 57.4164 53.3007V55.5648L57.6323 55.774L57.8481 55.9832H58.8052H59.7623V60.0639V64.1446L59.5673 64.1911C59.2312 64.2711 58.5939 64.7748 58.2805 65.208C56.9979 66.9809 57.9651 69.6101 60.0285 69.9594C61.4923 70.2071 62.8644 69.1252 63.1393 67.5068C63.3557 66.2327 62.6923 64.8923 61.563 64.3219L61.0839 64.0799V59.5242V54.9684L60.8908 54.7589L60.6976 54.5493H59.7344H58.7711V52.3337V50.1181L59.085 49.9216C59.5167 49.6514 60.9584 48.5788 61.4804 48.1395C62.6573 47.1492 64.3961 45.4765 64.6484 45.092C65.0228 44.5216 65.1072 43.7272 64.8582 43.1166C64.5239 42.2965 61.6584 39.6485 59.534 38.1965L58.7711 37.675V35.5787V33.4823L59.7682 33.4592L60.7653 33.4362L60.9246 33.235L61.0839 33.0338V28.4861V23.9385L61.5127 23.7275C62.6611 23.1626 63.357 21.7962 63.1417 20.5287C63.0323 19.8842 62.7833 19.3488 62.3934 18.919C60.9553 17.334 58.5094 17.9377 57.842 20.0422C57.6118 20.7683 57.6975 21.833 58.0344 22.4315C58.3942 23.0706 58.9399 23.5743 59.515 23.7979L59.7634 23.8946L59.7463 27.9484L59.7293 32.0023L58.7653 32.0221L57.8014 32.0419L57.6089 32.2598L57.4164 32.4776V34.6236C57.4164 35.8039 57.3984 36.7696 57.3764 36.7697C57.3543 36.7697 56.9677 36.5792 56.5173 36.3462C54.6281 35.3691 52.4536 34.5168 50.6266 34.0374L49.718 33.7991V32.4526V31.1062H51.1965C52.856 31.1062 53.0175 31.086 53.2524 30.8499L53.4185 30.6828V27.3107V23.9385L53.8491 23.7266C55.6194 22.8558 56.0762 20.4067 54.745 18.924C53.3117 17.3276 50.8928 17.9201 50.1827 20.0416C49.9719 20.6715 50.007 21.5723 50.266 22.1756C50.6004 22.9546 51.1555 23.5308 51.8019 23.7698L52.0969 23.8788V26.7397V29.6007H50.5538C49.5934 29.6007 48.9314 29.6307 48.8003 29.6802C48.4036 29.8303 48.3571 30.0662 48.3707 31.8589C48.3773 32.7264 48.3724 33.4545 48.3599 33.4769C48.3475 33.4992 47.9581 33.4605 47.4946 33.3907C46.7587 33.2799 45.2962 33.1456 44.2663 33.0942L43.9359 33.0777L43.9189 28.5086L43.9019 23.9395L44.3858 23.6903C45.4998 23.1168 46.1617 21.7992 45.9599 20.5566C45.7499 19.2631 44.853 18.2763 43.687 18.0559C42.5085 17.8333 41.2652 18.5594 40.7366 19.7789C40.5838 20.1316 40.5657 20.2604 40.5657 20.9977C40.5657 21.7927 40.5738 21.8395 40.7911 22.3093C41.0562 22.8826 41.5513 23.4087 42.0816 23.6809C42.2792 23.7824 42.4725 23.8653 42.511 23.8653C42.5598 23.8653 42.5812 25.2718 42.5812 28.4797V33.094L41.8708 33.1413C40.9869 33.2001 39.4003 33.3858 38.7663 33.5047C38.5035 33.5539 38.2731 33.5775 38.2542 33.557C38.2353 33.5365 38.2199 32.7514 38.2199 31.8123V30.1048L38.0272 29.8706L37.8344 29.6365L36.1769 29.6151L34.5193 29.5936V26.7351V23.8764L34.7671 23.7892C35.3378 23.5883 35.9895 22.9536 36.3049 22.2914C36.449 21.9889 36.5663 21.4082 36.5663 20.9977C36.5663 20.192 36.2848 19.4622 35.7511 18.884C34.2612 17.2698 31.7195 18.0253 31.1729 20.2449C30.8208 21.675 31.5597 23.2335 32.8415 23.7646L33.1316 23.8848V27.1393C33.1316 30.783 33.1346 30.8099 33.5567 31.0012C33.7376 31.0833 34.1275 31.1062 35.3432 31.1062H36.8982V32.5014V33.8966L36.6174 33.9733C35.5694 34.2597 35.1754 34.3808 34.3541 34.669C32.9648 35.1565 31.709 35.7093 30.4223 36.3996C29.7863 36.7408 29.2436 37.0309 29.2163 37.0442C29.189 37.0576 29.1668 36.031 29.1668 34.7629V32.4573L28.9736 32.2477L28.7804 32.0382H27.8172H26.8539V27.9649V23.8917L27.2146 23.7295C28.0035 23.3748 28.5789 22.6598 28.805 21.7534C29.2105 20.1282 28.2617 18.4418 26.7458 18.0934C26.2133 17.971 26.0835 17.9699 25.5984 18.0843ZM26.7841 19.6334C27.7408 20.163 27.8195 21.5713 26.9302 22.2493C26.6747 22.4442 26.5928 22.4673 26.1601 22.4673C25.7273 22.4673 25.6454 22.4442 25.3893 22.2491C24.4619 21.5427 24.619 20.0255 25.6664 19.5719C25.9493 19.4494 26.5071 19.4801 26.7841 19.6334ZM34.4249 19.6279C34.9891 19.9059 35.3453 20.6961 35.1879 21.3206C35.0807 21.7456 34.8885 22.0432 34.5763 22.2673C34.3358 22.44 34.2322 22.4673 33.8195 22.4673C33.3934 22.4673 33.31 22.4435 33.0553 22.2493C32.3437 21.7068 32.2235 20.7094 32.7826 19.9884C33.1568 19.506 33.8629 19.3509 34.4249 19.6279ZM44.0436 19.7452C44.463 20.0657 44.6455 20.4901 44.6166 21.0781C44.5868 21.6868 44.3665 22.0598 43.8824 22.3216C43.1463 22.7196 42.3223 22.4101 41.9796 21.607C41.6692 20.8795 41.9511 20.0442 42.6473 19.6286C43.0115 19.4113 43.6796 19.467 44.0436 19.7452ZM53.5612 19.7462C54.0388 20.1104 54.2572 20.7054 54.1341 21.3073C53.8853 22.5247 52.4785 22.916 51.72 21.9787C51.1241 21.2424 51.3334 20.1165 52.1564 19.6309C52.5291 19.4111 53.1931 19.4655 53.5612 19.7462ZM61.0901 19.6575C61.2713 19.7605 61.4648 19.9567 61.6023 20.1773C61.8101 20.5104 61.8219 20.5621 61.7998 21.04C61.7698 21.6889 61.563 22.0606 61.0858 22.3229C59.9098 22.9695 58.6146 21.6679 59.1607 20.3883C59.5018 19.589 60.3822 19.2556 61.0901 19.6575ZM44.6628 35.011C46.5421 35.3843 48.0324 36.2622 49.332 37.7616C50.2002 38.7633 50.9051 40.1155 51.2662 41.4722C51.4865 42.2999 51.5011 42.4097 51.5476 43.588C51.6434 46.0184 50.854 48.2959 49.2949 50.0878C45.4929 54.4572 38.961 53.6822 36.1027 48.5226C35.8343 48.0382 35.6579 47.6304 35.3446 46.7708C35.271 46.5688 35.2687 46.5598 35.1062 45.8029C34.9064 44.873 34.8908 43.1284 35.0736 42.1825C35.4273 40.3525 36.1695 38.8497 37.3592 37.5541C38.5642 36.2419 39.9392 35.4371 41.6413 35.0478C42.3746 34.88 43.9093 34.8614 44.6628 35.011ZM49.4383 35.2302C51.8932 35.8032 54.0712 36.643 56.3261 37.886C58.6672 39.1767 60.7051 40.7108 62.6829 42.6716C63.9119 43.8901 63.9069 43.8612 63.0475 44.7634C59.7215 48.2553 55.3403 50.9151 50.7753 52.2135C49.7812 52.4963 48.5876 52.7734 48.5481 52.7305C48.534 52.7152 48.7245 52.5476 48.9715 52.3581C49.5696 51.8994 50.6501 50.7069 51.1276 49.9788C51.844 48.8862 52.3992 47.5315 52.7064 46.1264C52.8661 45.3958 52.9295 43.6614 52.8334 42.6485C52.5687 39.8559 51.0355 37.031 48.8981 35.3979C48.6471 35.2061 48.4915 35.0492 48.5523 35.0492C48.6132 35.0492 49.0118 35.1307 49.4383 35.2302ZM37.3872 35.5647C35.9194 36.763 34.6724 38.6592 34.096 40.5695C33.6934 41.9034 33.627 42.3827 33.6289 43.939C33.6309 45.4722 33.6992 45.9748 34.0706 47.1877C34.6967 49.2325 35.8201 50.9241 37.4795 52.3204C37.6356 52.4518 37.7516 52.572 37.7373 52.5876C37.7229 52.6032 37.2234 52.4833 36.6274 52.3213C31.8122 51.0121 27.4628 48.4087 23.8968 44.701C23.1758 43.9514 23.1724 43.8739 23.8307 43.178C26.8261 40.0117 30.6468 37.5034 34.6184 36.0958C35.5687 35.7591 37.4939 35.1995 37.7176 35.1951C37.7966 35.1935 37.6742 35.3305 37.3872 35.5647ZM42.2839 38.1666C40.2932 38.5684 38.7188 40.1022 38.0879 42.2542C37.8896 42.9308 37.8343 44.3312 37.9771 45.0599C38.2802 46.6058 39.2411 48.105 40.4216 48.8737C41.6628 49.682 43.2708 49.9472 44.5967 49.5623C46.2371 49.0861 47.6615 47.7102 48.2552 46.0283C48.5244 45.2656 48.6138 44.7361 48.6138 43.9031C48.6138 43.0701 48.5244 42.5406 48.2552 41.7779C47.3501 39.214 44.7838 37.6619 42.2839 38.1666ZM44.4312 39.7227C46.0848 40.2666 47.273 42.0153 47.273 43.9051C47.273 45.5798 46.3785 47.1244 44.9932 47.8419C44.3868 48.1559 43.928 48.2674 43.242 48.2674C42.5515 48.2674 42.1017 48.1552 41.4578 47.8226C40.7693 47.4668 39.9889 46.6258 39.6501 45.8746C38.8677 44.1398 39.1562 42.2002 40.3972 40.8517C40.9168 40.2871 41.2636 40.0402 41.9001 39.7819C42.6687 39.4699 43.5966 39.4481 44.4312 39.7227ZM26.7595 65.6538C27.2259 65.8837 27.5819 66.4971 27.5801 67.0678C27.5792 67.368 27.3019 67.9675 27.0633 68.1854C26.4021 68.789 25.3656 68.5703 24.9393 67.7374C24.5408 66.959 24.889 65.9345 25.6664 65.5979C25.9316 65.4831 26.4687 65.5105 26.7595 65.6538ZM34.3718 65.6291C35.3759 66.0842 35.5077 67.5808 34.6042 68.2689C34.2802 68.5158 33.7528 68.5971 33.3687 68.4596C32.1927 68.0385 32.1237 66.1689 33.2642 65.6323C33.5648 65.4909 34.0638 65.4895 34.3718 65.6291ZM43.9365 65.6518C44.7916 66.0733 45.017 67.224 44.398 68.0085C43.6523 68.9536 42.2402 68.5546 41.9815 67.3257C41.7939 66.4346 42.4826 65.5157 43.335 65.5197C43.5201 65.5206 43.7908 65.58 43.9365 65.6518ZM53.5393 65.7524C54.1457 66.1877 54.3461 67.1055 53.9819 67.7797C53.505 68.6626 52.3747 68.788 51.742 68.0282C51.1038 67.2617 51.3255 66.1003 52.196 65.6501C52.5817 65.4507 53.1828 65.4964 53.5393 65.7524ZM61.0858 65.6984C61.563 65.9607 61.7698 66.3324 61.7998 66.9814C61.8219 67.4593 61.8101 67.5109 61.6023 67.844C60.9767 68.8471 59.6291 68.7307 59.1607 67.633C58.6134 66.3507 59.9073 65.0505 61.0858 65.6984Z" fill="url(#paint0_linear_19268_1845)"/>
<defs>
<linearGradient id="paint0_linear_19268_1845" x1="22" y1="44" x2="65" y2="44" gradientUnits="userSpaceOnUse">
<stop stop-color="#F7608C"/>
<stop offset="1" stop-color="#F8AC58"/>
</linearGradient>
</defs>
</svg>
