<svg width="121" height="121" viewBox="0 0 121 121" fill="none" xmlns="http://www.w3.org/2000/svg">
<g filter="url(#filter0_d_19268_1856)">
<circle cx="60.5" cy="56.5" r="43.5" fill="url(#paint0_linear_19268_1856)"/>
</g>
<path fill-rule="evenodd" clip-rule="evenodd" d="M49.6604 29.1087C48.7364 29.2235 47.2586 29.6316 46.4007 30.009C45.3968 30.4505 43.9727 31.4481 43.0833 32.3326C41.2042 34.2014 40.1018 36.5204 39.8302 39.1753C39.2792 44.5625 42.7007 49.5342 48.0307 51.0911C49.3476 51.4758 51.6891 51.5761 53.1143 51.3088C55.0538 50.945 56.7525 50.1541 58.2368 48.9236C60.0742 47.4005 61.2431 45.6324 61.9518 43.3042C62.2265 42.4021 62.2484 42.187 62.2555 40.3327C62.2623 38.561 62.2344 38.2292 62.0105 37.4152C60.9416 33.5304 57.8859 30.4642 54.048 29.4254C53.1971 29.195 51.579 28.9802 50.8556 29.0015C50.6165 29.0085 50.0787 29.0567 49.6604 29.1087ZM52.8831 30.5438C56.0029 31.1397 58.7293 33.2352 60.0406 36.0453C62.8277 42.0186 59.2066 48.8699 52.6612 50.0074C50.9864 50.2985 49.6548 50.1854 47.8827 49.6013C44.7885 48.5813 42.358 46.0153 41.4574 42.818C41.1611 41.7662 41.0559 39.8596 41.2337 38.7638C41.8982 34.6669 45.0629 31.3946 49.1715 30.5561C50.1189 30.3626 51.9038 30.3568 52.8831 30.5438ZM69.8977 38.9356C69.7806 39.0035 69.5206 39.6355 69.21 40.6073L68.7107 42.1696H67.0353C65.4888 42.1696 65.3428 42.1867 65.1362 42.3921C64.9844 42.5432 64.9233 42.7228 64.9461 42.9515C64.9752 43.2434 65.1441 43.4068 66.2111 44.1753C66.8884 44.663 67.4926 45.1119 67.5539 45.1728C67.6298 45.2484 67.5035 45.7892 67.1559 46.8771L66.6466 48.4706L66.856 48.7509C67.2269 49.2472 67.4763 49.174 68.891 48.1541C69.608 47.6371 70.2436 47.2141 70.3034 47.2141C70.3631 47.2141 70.9987 47.6371 71.7158 48.1541C73.1308 49.1743 73.3798 49.2473 73.7512 48.7502L73.9612 48.4693L73.4536 46.8742C73.114 45.8066 72.9822 45.2432 73.0552 45.1706C73.1152 45.1109 73.7184 44.663 74.3957 44.1753C75.4627 43.4068 75.6315 43.2434 75.6607 42.9515C75.6835 42.7228 75.6224 42.5432 75.4705 42.3921C75.264 42.1867 75.118 42.1696 73.5715 42.1696H71.896L71.3962 40.6054C70.8927 39.0301 70.7586 38.8153 70.2834 38.8232C70.1749 38.825 70.0013 38.8756 69.8977 38.9356ZM82.0724 39.009C81.9834 39.1131 81.6981 39.8668 81.4381 40.6839L80.9655 42.1696H79.3254C77.604 42.1696 77.2935 42.244 77.1779 42.6837C77.0742 43.0783 77.3208 43.3523 78.6068 44.271C79.3284 44.7864 79.9186 45.2378 79.9186 45.274C79.9186 45.3102 79.6986 46.0093 79.4297 46.8276C79.1608 47.6459 78.9408 48.3914 78.9408 48.4842C78.9408 48.7347 79.3396 49.0852 79.6244 49.0852C79.7656 49.0852 80.4551 48.6658 81.2163 48.117L82.5593 47.1489L82.8958 47.3856C83.0809 47.5158 83.6903 47.9515 84.2501 48.3538C84.8098 48.7561 85.349 49.0852 85.4482 49.0852C85.789 49.0852 86.1115 48.7646 86.1115 48.4262C86.1115 48.2486 85.9122 47.4941 85.6685 46.7491C85.4249 46.0042 85.2492 45.3334 85.2781 45.2584C85.307 45.1834 85.8357 44.7617 86.453 44.3212C87.0702 43.8807 87.6615 43.4353 87.7669 43.3312C88.0214 43.0801 88.0098 42.6529 87.7412 42.3857C87.5427 42.1883 87.3791 42.1696 85.8459 42.1696H84.1678L83.6656 40.6298C83.3893 39.7829 83.0839 39.0293 82.9868 38.955C82.7334 38.7608 82.2605 38.7887 82.0724 39.009ZM70.63 42.6019C70.922 43.5141 71.0082 43.5744 72.0202 43.5744H72.8886L72.1935 44.0896C71.7777 44.3977 71.4849 44.6987 71.4647 44.8387C71.4461 44.9674 71.5317 45.3971 71.6548 45.7937C71.7781 46.1902 71.8788 46.5337 71.8788 46.557C71.8788 46.5804 71.58 46.3808 71.2149 46.1134C70.8498 45.8461 70.4396 45.6274 70.3034 45.6274C70.1671 45.6274 69.7497 45.8514 69.3758 46.1252C68.9826 46.4131 68.7254 46.5464 68.7658 46.4415C68.9698 45.9128 69.1903 44.8826 69.1318 44.7311C69.0949 44.6354 68.7592 44.336 68.3858 44.0658L67.7067 43.5744H68.5808C69.599 43.5744 69.6838 43.5154 69.978 42.6019C70.0833 42.275 70.1928 41.9668 70.2215 41.9171C70.3069 41.7689 70.4284 41.9725 70.63 42.6019ZM82.8408 42.5109C83.1788 43.5062 83.2715 43.5744 84.2877 43.5744H85.1462L84.461 44.0883C83.584 44.7459 83.5584 44.9324 84.1342 46.4782C84.1646 46.5599 83.8788 46.4018 83.499 46.1271C83.1193 45.8523 82.7041 45.6274 82.5765 45.6274C82.4487 45.6274 82.0642 45.8269 81.722 46.0707C81.3796 46.3144 81.0787 46.493 81.0531 46.4675C81.0275 46.4422 81.109 46.1197 81.2341 45.7511C81.3655 45.3643 81.4335 44.9694 81.3951 44.8167C81.3549 44.6574 81.0661 44.3688 80.6682 44.0904L80.0082 43.6284L80.8708 43.5744C81.3453 43.5446 81.8062 43.4601 81.8949 43.3866C81.9837 43.313 82.118 43.0483 82.1933 42.7986C82.3786 42.183 82.5113 41.8455 82.5678 41.8455C82.5938 41.8455 82.7165 42.1449 82.8408 42.5109ZM72.278 50.5963C68.5725 51.0631 65.2717 52.5979 62.6861 55.0563L61.6629 56.0293L61.0397 55.7019C59.4729 54.8789 57.0696 54.0262 55.3644 53.6884C53.213 53.2621 50.3687 53.173 48.1476 53.4626C43.7497 54.036 39.5481 56.0577 36.2529 59.1859C33.2767 62.0113 31.256 65.4568 30.2549 69.4125C29.9696 70.5399 29.9473 70.7339 30.0727 70.9941L30.2156 71.2906L44.0046 71.3446L57.7937 71.3986L58.1876 72.5332C60.3094 78.6441 65.4786 82.9508 71.8061 83.8797C72.8972 84.0398 75.3674 84.0402 76.5415 83.8803C79.9616 83.4145 83.2465 81.8207 85.7748 79.4001C87.0474 78.1818 87.8965 77.132 88.6803 75.8073C90.3006 73.0692 90.9987 70.4857 91 67.2222C91.0012 64.3929 90.417 61.9899 89.1388 59.5666C88.2646 57.9091 87.4737 56.8316 86.1659 55.5159C83.6074 52.9424 80.6266 51.3763 77.0952 50.7504C75.9804 50.5528 73.3032 50.4672 72.278 50.5963ZM77.8856 52.3112C80.1753 52.9158 81.7316 53.6578 83.5204 54.9973C86.5552 57.2701 88.5583 60.4551 89.3838 64.321C89.7048 65.824 89.7321 68.5377 89.4408 69.99C88.806 73.1557 87.3542 75.9162 85.1836 78.0852C83.1272 80.14 80.8517 81.4497 78.126 82.1478C69.0343 84.4757 60.0743 78.4713 58.8319 69.218C58.6716 68.0244 58.7658 65.3241 59.0065 64.213C59.8857 60.1532 62.215 56.7178 65.6316 54.4421C66.828 53.6452 67.8814 53.1399 69.3667 52.6504C71.3025 52.0123 72.1421 51.8966 74.5406 51.9376C76.4457 51.9703 76.7037 51.999 77.8856 52.3112ZM77.2025 53.4849C76.8054 53.5584 76.5819 53.8015 76.4975 54.2519C76.3475 55.0514 75.7521 56.7259 75.2993 57.6216C74.5176 59.1679 73.5703 60.4811 72.2171 61.8945C70.7187 63.4596 70.2258 64.2684 70.0091 65.518C69.7919 66.7698 69.8227 72.3644 70.0523 73.3436C70.3975 74.8163 70.9708 75.7059 71.9383 76.2699L72.3964 76.5369L78.1403 76.5071C83.7055 76.4782 83.8977 76.4703 84.3189 76.2536C84.5698 76.1244 84.9026 75.8111 85.1065 75.512C85.4023 75.0783 85.4596 74.8944 85.4596 74.3808C85.4596 73.9922 85.3842 73.6204 85.2538 73.3659C85.1405 73.1449 85.0923 72.9369 85.1466 72.9034C85.201 72.87 85.3507 72.6393 85.4792 72.3908C85.7521 71.8632 85.8073 70.8265 85.5897 70.3112C85.4624 70.0094 85.4792 69.9248 85.7808 69.3547C86.0483 68.8487 86.1115 68.5986 86.1115 68.045C86.1115 67.6686 86.0621 67.2312 86.0016 67.073C85.9073 66.8264 85.9291 66.756 86.155 66.5794C86.6146 66.2199 86.9807 65.3363 86.9807 64.5869C86.9807 62.856 85.637 61.9349 83.341 62.0921C81.1939 62.2392 79.4239 62.278 79.2833 62.181C79.1047 62.0579 79.2124 61.4562 79.7615 59.5125C80.5962 56.5579 80.5308 55.0954 79.5212 54.1425C79.0016 53.652 77.9344 53.3494 77.2025 53.4849ZM52.8112 54.7083C54.3079 54.8486 55.8472 55.1568 57.1984 55.5867C58.4235 55.9764 60.4076 56.8212 60.5783 57.0257C60.6686 57.134 60.5559 57.3845 60.1083 58.0702C58.1275 61.1045 57.1858 64.4996 57.3555 67.9949C57.3916 68.7378 57.4534 69.5036 57.4928 69.6968L57.5645 70.0479H44.5676C31.6693 70.0479 31.5707 70.0463 31.5707 69.8331C31.5707 69.4855 32.1848 67.6799 32.7063 66.4939C34.8875 61.5338 39.5135 57.3465 44.6464 55.6862C47.5005 54.763 50.0888 54.4529 52.8112 54.7083ZM78.3389 54.9794C79.201 55.3862 79.1705 56.479 78.1946 60.1412C77.7609 61.7687 77.7352 62.6995 78.1135 63.0758C78.5432 63.5031 79.1646 63.6203 80.7335 63.5698C81.5103 63.5447 82.7899 63.5212 83.5769 63.5174C84.9442 63.5109 85.0203 63.5222 85.2865 63.771C85.6714 64.1309 85.7495 64.6416 85.498 65.1538C85.3342 65.4874 85.1969 65.5965 84.7612 65.7403C83.8531 66.0398 83.6699 66.5915 84.3159 67.0815C84.5635 67.2694 84.7166 67.4917 84.7613 67.7283C84.8587 68.2448 84.6301 68.8479 84.2808 68.9955C83.4976 69.3267 83.4012 69.7982 83.9929 70.4042C84.3019 70.7206 84.3732 70.8766 84.3732 71.2361C84.3732 71.7157 84.0081 72.2091 83.6533 72.2091C83.3825 72.2091 83.0694 72.5289 83.0694 72.8055C83.0694 73.0927 83.4311 73.5762 83.7125 73.665C84.2074 73.8212 84.222 74.7519 83.7337 75.0119C83.5902 75.0883 81.7152 75.1266 78.1127 75.1266H72.7071L72.3475 74.8834C71.5021 74.3118 71.2037 72.923 71.2042 69.5617C71.2045 66.7635 71.3336 65.4991 71.7002 64.7029C71.8801 64.312 72.3731 63.7043 73.2522 62.7898C75.2659 60.6949 76.4926 58.719 77.3659 56.1628C77.5891 55.5091 77.7933 54.9378 77.8196 54.8932C77.8856 54.7807 77.9354 54.7889 78.3389 54.9794ZM62.4265 64.7532C62.2148 64.9637 62.2092 65.1134 62.2092 70.5263V76.0834L62.4955 76.3073C62.7676 76.5203 62.9146 76.5313 65.4881 76.5313H68.1947L68.4613 76.266L68.728 76.0008V70.5342V65.0676L68.4613 64.8024L68.1947 64.5371H65.4192C62.7886 64.5371 62.6325 64.5484 62.4265 64.7532ZM64.7907 70.5612L64.8191 75.1266H64.2203H63.6216V70.5286V65.9305L64.192 65.9632L64.7624 65.9959L64.7907 70.5612ZM67.3156 70.5342V75.1266H66.718H66.1205V70.5342V65.9418H66.718H67.3156V70.5342Z" fill="white"/>
<defs>
<filter id="filter0_d_19268_1856" x="0" y="0" width="121" height="121" filterUnits="userSpaceOnUse" color-interpolation-filters="sRGB">
<feFlood flood-opacity="0" result="BackgroundImageFix"/>
<feColorMatrix in="SourceAlpha" type="matrix" values="0 0 0 0 0 0 0 0 0 0 0 0 0 0 0 0 0 0 127 0" result="hardAlpha"/>
<feOffset dy="4"/>
<feGaussianBlur stdDeviation="8.5"/>
<feComposite in2="hardAlpha" operator="out"/>
<feColorMatrix type="matrix" values="0 0 0 0 1 0 0 0 0 0.345098 0 0 0 0 0.431373 0 0 0 0.28 0"/>
<feBlend mode="normal" in2="BackgroundImageFix" result="effect1_dropShadow_19268_1856"/>
<feBlend mode="normal" in="SourceGraphic" in2="effect1_dropShadow_19268_1856" result="shape"/>
</filter>
<linearGradient id="paint0_linear_19268_1856" x1="30.1888" y1="13" x2="100.542" y2="21.1944" gradientUnits="userSpaceOnUse">
<stop stop-color="#FD9B2B"/>
<stop offset="1" stop-color="#F14F09"/>
</linearGradient>
</defs>
</svg>
