<svg width="121" height="121" viewBox="0 0 121 121" fill="none" xmlns="http://www.w3.org/2000/svg">
<g filter="url(#filter0_d_19268_1861)">
<circle cx="60.5" cy="56.5" r="43.5" fill="url(#paint0_linear_19268_1861)"/>
</g>
<path fill-rule="evenodd" clip-rule="evenodd" d="M63.4986 29.5439C56.025 31.5604 50.5097 37.7662 49.607 45.1743L49.3798 47.0394L47.4682 47.1496C46.2298 47.2211 45.5565 47.4221 45.5565 47.7205C45.5565 48.3392 52.9686 60.0933 53.4627 60.2586C53.8629 60.3921 61.1449 49.2052 61.4712 47.9565C61.6321 47.3386 61.4137 47.2481 59.525 47.15C57.9243 47.0668 57.3701 46.8953 57.2871 46.4572C57.0686 45.306 58.7108 41.7905 60.1716 40.2825C65.5854 34.6939 74.4973 36.0108 77.9375 42.9079C80.739 48.5249 78.2838 55.33 72.5201 57.9214C70.5171 58.8221 66.3857 58.964 64.4908 58.1968C63.7899 57.913 62.4769 57.1612 61.5728 56.5265C60.0424 55.4518 59.029 55.2388 59.029 55.9924C59.029 56.5994 61.0386 58.1917 63.0344 59.1657C64.7213 59.989 65.5246 60.144 68.1321 60.1495C71.8796 60.1572 74.478 59.123 76.9616 56.6348C79.5972 53.9941 80.3309 52.0622 80.3269 47.769C80.3243 44.6304 80.2027 43.8921 79.4552 42.4796C77.4288 38.6504 75.0464 36.7295 71.0516 35.704C67.1165 34.6943 63.105 35.6665 60.1228 38.3524C57.9228 40.3343 56.6866 42.3395 55.9992 45.0419C55.5076 46.9745 55.4472 47.0431 54.1429 47.154C53.1077 47.2419 52.8218 47.4115 52.9114 47.8836C53.0072 48.3866 53.6032 48.5318 56.186 48.681L59.3433 48.8634L56.5461 53.3309C55.008 55.7881 53.664 57.7992 53.5595 57.7996C53.4554 57.8003 52.1052 55.7896 50.5599 53.332L47.7496 48.8634L49.1107 48.681C50.3633 48.5132 50.4951 48.3822 50.7584 47.0394C52.0404 40.505 53.1736 38.1288 56.4401 35.1251C66.7509 25.6436 83.0971 31.4656 85.2833 45.3979C85.7614 48.4442 85.9289 48.7948 86.6837 48.3279C87.5205 47.8095 86.6003 42.8783 85.0575 39.6149C83.4987 36.3176 79.8393 32.4954 76.871 31.0643C72.6515 29.0303 67.5509 28.4503 63.4986 29.5439ZM67.4945 40.2358C67.3445 40.6403 66.6504 41.3568 65.9521 41.8277C63.5325 43.4605 63.5736 45.9502 66.0464 47.5567C67.3306 48.391 67.4038 48.542 67.4038 50.3623C67.4038 51.4202 67.2531 52.3792 67.0688 52.4934C66.6654 52.7429 65.2191 50.9864 65.2191 50.2466C65.2191 49.9395 64.9547 49.7768 64.5819 49.8541C63.1531 50.1507 64.5356 53.4057 66.3329 53.9773C66.6818 54.0882 67.0714 54.5942 67.1985 55.102C67.4857 56.2481 68.6262 56.1536 68.7948 54.9699C68.8585 54.5205 69.1618 54.1528 69.4684 54.1528C70.4078 54.1528 72.5015 51.7736 72.5015 50.7055C72.5015 49.1297 71.53 47.6774 70.1384 47.1733C68.8945 46.7228 68.8603 46.6582 68.8603 44.7646C68.8603 42.9713 68.9142 42.8477 69.5467 43.1866C69.9243 43.389 70.3368 43.9694 70.4639 44.4764C70.7126 45.4687 71.6713 45.724 71.9932 44.8835C72.3144 44.0453 71.1623 42.252 69.9905 41.7657C69.3628 41.5053 68.8545 40.9935 68.79 40.5575C68.6382 39.5307 67.8302 39.33 67.4945 40.2358ZM67.4038 44.6468C67.4038 46.3759 66.9986 46.725 66.1203 45.7525C65.5821 45.1568 65.5402 44.8704 65.8818 44.1197C66.5459 42.6591 67.4038 42.956 67.4038 44.6468ZM70.2025 49.1092C70.6656 49.5455 71.045 50.1507 71.045 50.4538C71.045 51.0452 69.6585 52.6936 69.1611 52.6936C68.9958 52.6936 68.8603 51.7087 68.8603 50.5049C68.8603 49.3011 68.9725 48.3162 69.1101 48.3162C69.2474 48.3162 69.7389 48.673 70.2025 49.1092ZM85.7534 50.657C85.4519 51.4439 85.871 52.4241 86.4295 52.2377C86.6797 52.1541 86.8843 51.7025 86.8843 51.2345C86.8843 50.2346 86.0734 49.8206 85.7534 50.657ZM85.6099 55.4295C85.6099 56.1525 85.7698 56.3641 86.2471 56.2722C86.5978 56.2043 86.8843 55.8253 86.8843 55.4295C86.8843 55.0337 86.5978 54.6547 86.2471 54.5869C85.7698 54.495 85.6099 54.7065 85.6099 55.4295ZM47.7216 63.7682C47.0097 64.0232 44.7554 65.4276 42.7116 66.8893L38.9961 69.5472L38.313 68.702L37.63 67.8571L36.1396 68.8916C34.1129 70.299 33.6803 70.8542 34.2028 71.3777C34.5105 71.6859 34.9606 71.5455 35.9703 70.8257C36.7153 70.2946 37.3518 69.8966 37.3845 69.9408C39.042 72.1652 45.6341 81.6544 45.7717 82.0138C45.886 82.3129 45.5059 82.8524 44.8516 83.3193C42.6486 84.8905 43.9999 85.7225 46.2505 84.1806C47.7139 83.1782 47.8301 82.8619 47.336 81.2291C47.2584 80.973 47.648 80.482 48.2019 80.138C49.1832 79.5281 49.4118 79.5646 57.3056 81.5961C62.4237 82.913 65.7372 83.5947 66.3122 83.4485C67.2545 83.2095 82.4795 72.6395 84.2401 71.0027C86.8046 68.6177 85.1092 64.3668 81.5933 64.3668C80.569 64.3668 79.4883 64.9217 76.5768 66.9422C74.5355 68.3591 72.8656 69.6774 72.8656 69.8722C72.8656 70.9381 74.2427 70.4289 77.3199 68.2241C81.1181 65.5031 82.2633 65.2755 83.534 66.9882C84.8463 68.757 84.1705 69.4768 75.377 75.6752C70.9649 78.785 66.9789 81.5282 66.5186 81.7712C65.809 82.1458 64.5036 81.912 57.8951 80.2267C53.6123 79.1345 49.7177 78.2379 49.2407 78.2346C48.7637 78.2313 47.853 78.5508 47.2173 78.9444L46.0616 79.6602L42.9159 75.2287L39.7706 70.7976L41.8443 69.2893C46.0506 66.2298 47.7616 65.15 48.7408 64.9366C50.1368 64.6327 68.0858 69.8773 68.7463 70.7823C69.8664 72.3166 68.8745 74.5809 67.0823 74.5809C66.6366 74.5809 64.2028 74.0855 61.6736 73.4799C58.5546 72.7332 56.9564 72.4986 56.7052 72.7504C56.0414 73.4154 56.9452 73.8268 61.5302 74.9486C67.1908 76.3333 68.1015 76.3373 69.5499 74.9818C71.0822 73.5478 71.135 71.4506 69.6796 69.8288C68.7937 68.8413 67.6077 68.4003 59.3931 66.0022C54.2863 64.5109 49.8623 63.2943 49.5619 63.298C49.2615 63.3016 48.4334 63.5132 47.7216 63.7682Z" fill="white"/>
<defs>
<filter id="filter0_d_19268_1861" x="0" y="0" width="121" height="121" filterUnits="userSpaceOnUse" color-interpolation-filters="sRGB">
<feFlood flood-opacity="0" result="BackgroundImageFix"/>
<feColorMatrix in="SourceAlpha" type="matrix" values="0 0 0 0 0 0 0 0 0 0 0 0 0 0 0 0 0 0 127 0" result="hardAlpha"/>
<feOffset dy="4"/>
<feGaussianBlur stdDeviation="8.5"/>
<feComposite in2="hardAlpha" operator="out"/>
<feColorMatrix type="matrix" values="0 0 0 0 0.509804 0 0 0 0 0.337255 0 0 0 0 0.941176 0 0 0 0.4 0"/>
<feBlend mode="normal" in2="BackgroundImageFix" result="effect1_dropShadow_19268_1861"/>
<feBlend mode="normal" in="SourceGraphic" in2="effect1_dropShadow_19268_1861" result="shape"/>
</filter>
<linearGradient id="paint0_linear_19268_1861" x1="30.1888" y1="13" x2="100.542" y2="21.1944" gradientUnits="userSpaceOnUse">
<stop stop-color="#FD9B2B"/>
<stop offset="1" stop-color="#F14F09"/>
</linearGradient>
</defs>
</svg>
