<svg width="75" height="75" viewBox="0 0 75 75" fill="none" xmlns="http://www.w3.org/2000/svg">
<g filter="url(#filter0_d_19268_2399)">
<circle cx="37.766" cy="33.9564" r="27.9564" fill="white"/>
</g>
<path d="M36.185 50.2361L28.1932 31.6211H20.3662L36.185 50.2361Z" fill="#E2A400"/>
<path d="M36.185 50.2361L28.1932 31.6211H20.3662L36.185 50.2361Z" fill="url(#paint0_linear_19268_2399)"/>
<path d="M45.7644 30.4L40.0682 21.8525H35.4648L29.7686 30.4H45.7644Z" fill="#E2A400"/>
<path d="M45.7644 30.4L40.0682 21.8525H35.4648L29.7686 30.4H45.7644Z" fill="url(#paint1_linear_19268_2399)"/>
<path d="M46.0087 31.6211H29.5244L37.7666 50.8284L46.0087 31.6211Z" fill="#E2A400"/>
<path d="M46.0087 31.6211H29.5244L37.7666 50.8284L46.0087 31.6211Z" fill="url(#paint2_linear_19268_2399)"/>
<path d="M47.3395 31.6211L39.3477 50.2361L55.1665 31.6211H47.3395Z" fill="#E2A400"/>
<path d="M47.3395 31.6211L39.3477 50.2361L55.1665 31.6211H47.3395Z" fill="url(#paint3_linear_19268_2399)"/>
<path d="M28.3031 30.4L33.9993 21.8525H27.198C27.1048 21.8528 27.0128 21.8743 26.9292 21.9156C26.8456 21.9569 26.7726 22.0168 26.7157 22.0906L20.3906 30.4H28.3031ZM47.2295 30.4H55.1664L48.8169 22.0906C48.76 22.0168 48.687 21.9569 48.6034 21.9156C48.5197 21.8743 48.4278 21.8528 48.3346 21.8525H41.5333L47.2295 30.4Z" fill="#E2A400"/>
<path d="M28.3031 30.4L33.9993 21.8525H27.198C27.1048 21.8528 27.0128 21.8743 26.9292 21.9156C26.8456 21.9569 26.7726 22.0168 26.7157 22.0906L20.3906 30.4H28.3031ZM47.2295 30.4H55.1664L48.8169 22.0906C48.76 22.0168 48.687 21.9569 48.6034 21.9156C48.5197 21.8743 48.4278 21.8528 48.3346 21.8525H41.5333L47.2295 30.4Z" fill="url(#paint4_linear_19268_2399)"/>
<defs>
<filter id="filter0_d_19268_2399" x="0.991453" y="0.70913" width="73.5493" height="73.5493" filterUnits="userSpaceOnUse" color-interpolation-filters="sRGB">
<feFlood flood-opacity="0" result="BackgroundImageFix"/>
<feColorMatrix in="SourceAlpha" type="matrix" values="0 0 0 0 0 0 0 0 0 0 0 0 0 0 0 0 0 0 127 0" result="hardAlpha"/>
<feOffset dy="3.52725"/>
<feGaussianBlur stdDeviation="4.40906"/>
<feComposite in2="hardAlpha" operator="out"/>
<feColorMatrix type="matrix" values="0 0 0 0 0.207843 0 0 0 0 0.215686 0 0 0 0 0.819608 0 0 0 0.03 0"/>
<feBlend mode="normal" in2="BackgroundImageFix" result="effect1_dropShadow_19268_2399"/>
<feBlend mode="normal" in="SourceGraphic" in2="effect1_dropShadow_19268_2399" result="shape"/>
</filter>
<linearGradient id="paint0_linear_19268_2399" x1="22.7643" y1="31.6211" x2="35.604" y2="32.892" gradientUnits="userSpaceOnUse">
<stop stop-color="#FD9B2B"/>
<stop offset="1" stop-color="#F14F09"/>
</linearGradient>
<linearGradient id="paint1_linear_19268_2399" x1="32.1935" y1="21.8525" x2="44.7094" y2="24.5807" gradientUnits="userSpaceOnUse">
<stop stop-color="#FD9B2B"/>
<stop offset="1" stop-color="#F14F09"/>
</linearGradient>
<linearGradient id="paint2_linear_19268_2399" x1="32.0234" y1="31.6211" x2="45.4007" y2="32.9583" gradientUnits="userSpaceOnUse">
<stop stop-color="#FD9B2B"/>
<stop offset="1" stop-color="#F14F09"/>
</linearGradient>
<linearGradient id="paint3_linear_19268_2399" x1="41.7457" y1="31.6211" x2="54.5855" y2="32.892" gradientUnits="userSpaceOnUse">
<stop stop-color="#FD9B2B"/>
<stop offset="1" stop-color="#F14F09"/>
</linearGradient>
<linearGradient id="paint4_linear_19268_2399" x1="25.6625" y1="21.8525" x2="48.9385" y2="32.8828" gradientUnits="userSpaceOnUse">
<stop stop-color="#FD9B2B"/>
<stop offset="1" stop-color="#F14F09"/>
</linearGradient>
</defs>
</svg>
