<svg width="1440" height="137" viewBox="0 0 1440 137" fill="none" xmlns="http://www.w3.org/2000/svg">
<path fill-rule="evenodd" clip-rule="evenodd" d="M-59 7.38484L6.45834 4.29877C71.9167 1.21269 202.833 -4.95946 333.75 7.38484C464.667 19.7291 595.583 50.5899 726.5 50.5899C857.417 50.5899 988.333 19.7291 1119.25 13.557C1250.17 7.38484 1381.08 25.9013 1446.54 35.1595L1512 44.4177V137H1446.54C1381.08 137 1250.17 137 1119.25 137C988.333 137 857.417 137 726.5 137C595.583 137 464.667 137 333.75 137C202.833 137 71.9167 137 6.45834 137H-59V7.38484Z" fill="white"/>
</svg>
